<svg width="168" height="48" viewBox="0 0 168 48" fill="none" xmlns="http://www.w3.org/2000/svg">
<path d="M10.234 38.57C9.06867 38.57 7.90333 38.418 6.738 38.114C5.57267 37.81 4.48333 37.392 3.47 36.86C2.482 36.328 1.646 35.72 0.962 35.036L4.876 31.008C5.484 31.616 6.206 32.0973 7.042 32.452C7.90333 32.8067 8.80267 32.984 9.74 32.984C10.1707 32.984 10.5 32.9333 10.728 32.832C10.9813 32.7053 11.108 32.5407 11.108 32.338C11.108 31.9833 10.8927 31.7173 10.462 31.54C10.0567 31.3627 9.52467 31.198 8.866 31.046C8.23267 30.894 7.54867 30.704 6.814 30.476C6.10467 30.2227 5.42067 29.8933 4.762 29.488C4.10333 29.0573 3.57133 28.4747 3.166 27.74C2.76067 26.98 2.558 26.0173 2.558 24.852C2.558 23.6613 2.88733 22.61 3.546 21.698C4.23 20.7607 5.18 20.026 6.396 19.494C7.63733 18.9367 9.06867 18.658 10.69 18.658C12.3367 18.658 13.9327 18.9367 15.478 19.494C17.0233 20.0513 18.252 20.8873 19.164 22.002L15.212 26.03C14.5787 25.3207 13.882 24.852 13.122 24.624C12.362 24.3707 11.7287 24.244 11.222 24.244C10.7407 24.244 10.3987 24.32 10.196 24.472C10.0187 24.5987 9.93 24.7633 9.93 24.966C9.93 25.2447 10.1327 25.4727 10.538 25.65C10.9433 25.8273 11.4627 25.992 12.096 26.144C12.7547 26.296 13.4387 26.4987 14.148 26.752C14.8573 27.0053 15.5287 27.36 16.162 27.816C16.8207 28.272 17.3527 28.88 17.758 29.64C18.1633 30.3747 18.366 31.3373 18.366 32.528C18.366 34.3773 17.6313 35.8467 16.162 36.936C14.6927 38.0253 12.7167 38.57 10.234 38.57ZM30.1214 38.456C28.2974 38.456 26.676 38.1013 25.2574 37.392C23.864 36.6827 22.762 35.6947 21.9514 34.428C21.1407 33.1613 20.7354 31.7173 20.7354 30.096V19.304H28.1834V30.172C28.1834 30.552 28.2594 30.894 28.4114 31.198C28.5887 31.502 28.8167 31.7427 29.0954 31.92C29.3994 32.072 29.7414 32.148 30.1214 32.148C30.6534 32.148 31.0967 31.9707 31.4514 31.616C31.8314 31.236 32.0214 30.7547 32.0214 30.172V19.304H39.4694V30.096C39.4694 31.7427 39.064 33.1993 38.2534 34.466C37.468 35.7073 36.366 36.6827 34.9474 37.392C33.554 38.1013 31.9454 38.456 30.1214 38.456ZM54.0441 38.38C52.9295 38.38 51.8781 38.1647 50.8901 37.734C49.9021 37.3033 49.0661 36.7333 48.3821 36.024C47.6981 35.2893 47.2548 34.4913 47.0521 33.63V23.294C47.2548 22.4327 47.6981 21.6727 48.3821 21.014C49.0661 20.3553 49.9021 19.8487 50.8901 19.494C51.8781 19.114 52.9295 18.924 54.0441 18.924C55.8935 18.924 57.5021 19.342 58.8701 20.178C60.2635 20.9887 61.3401 22.1287 62.1001 23.598C62.8855 25.0673 63.2781 26.752 63.2781 28.652C63.2781 30.552 62.8855 32.2367 62.1001 33.706C61.3401 35.15 60.2635 36.29 58.8701 37.126C57.5021 37.962 55.8935 38.38 54.0441 38.38ZM42.5301 38V10.184H49.9781V23.902L48.7621 28.424L49.7881 32.984V38H42.5301ZM52.6761 31.844C53.2841 31.844 53.8161 31.7047 54.2721 31.426C54.7535 31.1473 55.1208 30.7673 55.3741 30.286C55.6528 29.8047 55.7921 29.26 55.7921 28.652C55.7921 28.044 55.6528 27.4993 55.3741 27.018C55.1208 26.5367 54.7535 26.1567 54.2721 25.878C53.7908 25.5993 53.2461 25.46 52.6381 25.46C52.0301 25.46 51.4855 25.5993 51.0041 25.878C50.5481 26.1567 50.1935 26.5367 49.9401 27.018C49.6868 27.474 49.5601 28.0187 49.5601 28.652C49.5601 29.2853 49.6868 29.8427 49.9401 30.324C50.2188 30.8053 50.5861 31.1853 51.0421 31.464C51.5235 31.7173 52.0681 31.844 52.6761 31.844ZM77.6175 38V27.512C77.6175 26.7773 77.4022 26.22 76.9715 25.84C76.5662 25.4347 76.0468 25.232 75.4135 25.232C74.9828 25.232 74.5902 25.3207 74.2355 25.498C73.9062 25.6753 73.6402 25.9413 73.4375 26.296C73.2602 26.6253 73.1715 27.0307 73.1715 27.512L70.2835 26.22C70.2835 24.7 70.6128 23.3953 71.2715 22.306C71.9555 21.2167 72.8802 20.3807 74.0455 19.798C75.2362 19.2153 76.5788 18.924 78.0735 18.924C79.4162 18.924 80.6068 19.228 81.6455 19.836C82.7095 20.4187 83.5455 21.2293 84.1535 22.268C84.7615 23.2813 85.0655 24.4593 85.0655 25.802V38H77.6175ZM65.7235 38V19.304H73.1715V38H65.7235Z" fill="white"/>
<path d="M102.896 30.3151C103.274 30.5831 103.308 30.7432 103.308 30.7593C103.308 30.7763 103.27 30.9441 102.875 31.2185L102.891 31.2424L102.896 30.3151ZM102.896 30.3151C102.133 29.7753 101.553 28.9429 101.427 27.9492L102.896 30.3151Z" fill="white" stroke="white" stroke-width="3"/>
<path d="M106.256 38V11.628H113.704V38H106.256ZM102.266 25.384V19.304H117.694V25.384H102.266ZM119.705 38V19.304H127.153V38H119.705ZM123.429 17.556C122.34 17.556 121.428 17.1887 120.693 16.454C119.984 15.694 119.629 14.7693 119.629 13.68C119.629 12.5907 119.984 11.6787 120.693 10.944C121.428 10.184 122.34 9.804 123.429 9.804C124.544 9.804 125.456 10.184 126.165 10.944C126.874 11.6787 127.229 12.5907 127.229 13.68C127.229 14.7693 126.874 15.694 126.165 16.454C125.456 17.1887 124.544 17.556 123.429 17.556ZM132.894 38V18.544C132.894 16.9227 133.249 15.4533 133.958 14.136C134.668 12.7933 135.694 11.7293 137.036 10.944C138.379 10.1333 140 9.728 141.9 9.728C143.319 9.728 144.573 9.956 145.662 10.412C146.777 10.868 147.702 11.476 148.436 12.236L143.838 16.834C143.661 16.6313 143.433 16.492 143.154 16.416C142.876 16.3147 142.584 16.264 142.28 16.264C141.698 16.264 141.229 16.4413 140.874 16.796C140.52 17.1507 140.342 17.6193 140.342 18.202V38H132.894ZM129.094 25.384V19.304H145.472V25.384H129.094ZM153.604 38L146.232 19.304H154.136L158.468 35.226H155.2L159.456 19.304H167.322L159.988 38H153.604ZM149.538 45.98L154.972 33.706L159.988 38L156.834 45.98H149.538Z" fill="white"/>
</svg>
